<?xml version="1.0" encoding="utf-8"?><!-- Generator: Adobe Illustrator 21.0.0, SVG Export Plug-In . SVG Version: 6.00 Build 0)  --><svg version="1.1" id="Layer_1" xmlns="http://www.w3.org/2000/svg" xmlns:xlink="http://www.w3.org/1999/xlink" x="0px" y="0px"
	 viewBox="0 0 1190.6 433.2" style="enable-background:new 0 0 1190.6 433.2;" xml:space="preserve"><style type="text/css">
	.st0{fill:none;stroke:#000000;stroke-width:3;stroke-miterlimit:10;}
	.st1{fill:none;stroke:#000000;stroke-miterlimit:10;}
	.st2{fill:#FFFFFF;stroke:#000000;stroke-miterlimit:10;}
</style><path class="st0" d="M875.7,303.5"/><path class="st0" d="M502.9,176.8v-2.3v-25.3h-84.6c-74.6,0-150.5,73.2-150.5,170.7H112.6V83.5h9.7V53.2h-5.6v-34H61.1l-1.6-1.6
	H27.4v2h-2.2v33.6h-4.5v327l24.5,24.5h288.5c0,0,0-33,0-82.9c0-60.8,55.4-107.4,87.8-107.4h81.3v15.7h26.1v3h136.8v-3h26.4v-16.1
	c0,0,50.1,0,77.6,0c27.4,0,83.1,44.6,83.1,89.4v103.1h291.5l27.3-27.3V29.9h-82.9v262.9h-4.5v31.5H875.7v-9.1
	c-0.4-10.3-1-14.3-1-14.3"/><line class="st0" x1="692.1" y1="214.1" x2="692.1" y2="188.2"/><line class="st0" x1="502.9" y1="214.4" x2="502.9" y2="188.2"/><polyline class="st0" points="692.1,176.8 692.1,137.5 502.9,137.5 502.9,149.2 "/><polyline class="st0" points="692.1,154.1 774.8,154.1 774.8,194 732.1,194 "/><line class="st0" x1="719.2" y1="194" x2="706.9" y2="194"/><line class="st0" x1="711" y1="214.1" x2="711" y2="194"/><line class="st0" x1="733.4" y1="186.3" x2="733.4" y2="176.3"/><line class="st0" x1="733.4" y1="167.2" x2="733.4" y2="154.1"/><path class="st0" d="M774.8,154.1c56.4,0,141.4,76.2,141.4,149.4v20.9"/><path class="st0" d="M54.4,344.8"/><polyline class="st0" points="20.8,344.8 54.4,344.8 54.4,319.3 "/><line class="st0" x1="25.3" y1="53.2" x2="61.4" y2="53.2"/><polyline class="st0" points="116.7,53.2 72,53.2 70,53.2 "/><line class="st0" x1="54.4" y1="310.4" x2="54.4" y2="257.7"/><line class="st0" x1="54.4" y1="248" x2="54.4" y2="215"/><line class="st0" x1="54.4" y1="208.6" x2="54.4" y2="194.8"/><line class="st0" x1="54.4" y1="187.6" x2="54.4" y2="154.4"/><line class="st0" x1="54.4" y1="147" x2="54.4" y2="114.7"/><line class="st0" x1="54.4" y1="106.8" x2="54.4" y2="93.8"/><polyline class="st0" points="54.4,69.1 54.4,86.9 54.4,88.4 "/><line class="st0" x1="54.4" y1="62.2" x2="54.4" y2="53.2"/><line class="st0" x1="54.4" y1="81.2" x2="20.8" y2="81.2"/><line class="st0" x1="54.4" y1="182.6" x2="20.8" y2="182.6"/><line class="st0" x1="54.4" y1="284.1" x2="20.8" y2="284.1"/><path class="st0" d="M76.4,53.2"/><polyline class="st0" points="112.6,306.2 74.7,306.2 74.7,297 "/><line class="st0" x1="74.7" y1="290.1" x2="74.7" y2="257.7"/><line class="st0" x1="74.7" y1="248" x2="74.7" y2="215"/><line class="st0" x1="74.7" y1="208.6" x2="74.7" y2="174.6"/><line class="st0" x1="74.7" y1="167.4" x2="74.7" y2="134.2"/><line class="st0" x1="74.7" y1="127" x2="74.7" y2="114.7"/><line class="st0" x1="74.7" y1="106.8" x2="74.7" y2="93.8"/><polyline class="st0" points="74.7,71.9 74.7,86.9 74.7,88.4 "/><line class="st0" x1="74.7" y1="64.8" x2="74.7" y2="53.2"/><line class="st0" x1="112.6" y1="83.5" x2="74.7" y2="83.5"/><line class="st0" x1="74.7" y1="182.6" x2="112.6" y2="182.6"/><line class="st0" x1="74.7" y1="284.1" x2="112.6" y2="284.1"/><line class="st0" x1="54.4" y1="344.8" x2="54.4" y2="353.9"/><polyline class="st0" points="54.4,364.6 54.4,371.1 60.5,371.1 "/><line class="st0" x1="74.7" y1="371.1" x2="95.8" y2="371.1"/><line class="st0" x1="102.1" y1="371.1" x2="119.7" y2="371.1"/><line class="st0" x1="126" y1="371.1" x2="143.9" y2="371.1"/><line class="st0" x1="149.8" y1="371.1" x2="179.4" y2="371.1"/><line class="st0" x1="193.3" y1="371.1" x2="220.3" y2="371.1"/><line class="st0" x1="226.9" y1="371.1" x2="239.5" y2="371.1"/><line class="st0" x1="245.7" y1="371.1" x2="298.2" y2="371.1"/><polyline class="st0" points="304.3,371.1 312.1,371.1 312.1,404.7 "/><line class="st0" x1="138.2" y1="404.7" x2="138.2" y2="371.1"/><line class="st0" x1="252.1" y1="404.7" x2="252.1" y2="371.1"/><line class="st0" x1="83.4" y1="306.2" x2="83.4" y2="336.3"/><polyline class="st0" points="83.4,349.3 83.4,353.9 123.3,353.9 "/><line class="st0" x1="130" y1="353.9" x2="143.9" y2="353.9"/><line class="st0" x1="149.8" y1="353.9" x2="163.6" y2="353.9"/><line class="st0" x1="169.5" y1="353.9" x2="182.1" y2="353.9"/><line class="st0" x1="188.6" y1="353.9" x2="201.4" y2="353.9"/><line class="st0" x1="207.7" y1="353.9" x2="220.3" y2="353.9"/><line class="st0" x1="226.9" y1="353.9" x2="239.5" y2="353.9"/><polyline class="st0" points="245.7,353.9 252.1,353.9 252.1,320 "/><line class="st0" x1="112.6" y1="320" x2="112.6" y2="353.9"/><line class="st0" x1="138.2" y1="353.9" x2="138.2" y2="320"/><polyline class="st0" points="252.1,345.1 293.8,345.1 293.8,338.8 "/><line class="st0" x1="267.8" y1="320" x2="298.2" y2="320"/><path class="st0" d="M312.1,320h21.8H312.1z"/><polyline class="st0" points="312.1,357.9 312.1,320 312.1,317.6 312.1,312.8 "/><line class="st0" x1="293.8" y1="328.4" x2="293.8" y2="320"/><line class="st1" x1="20.8" y1="123" x2="54.4" y2="123"/><line class="st1" x1="20.8" y1="101.9" x2="54.4" y2="101.9"/><line class="st1" x1="74.7" y1="101.9" x2="112.6" y2="101.9"/><line class="st1" x1="74.7" y1="119" x2="112.6" y2="119"/><line class="st1" x1="74.7" y1="142" x2="112.6" y2="142"/><path class="st1" d="M74.7,159"/><line class="st1" x1="20.8" y1="204.4" x2="54.4" y2="204.4"/><line class="st1" x1="20.8" y1="244.1" x2="54.4" y2="244.1"/><line class="st1" x1="74.7" y1="224" x2="112.6" y2="224"/><line class="st1" x1="78" y1="371.1" x2="78" y2="404.7"/><line class="st1" x1="111.6" y1="371.1" x2="111.6" y2="404.7"/><line class="st1" x1="158" y1="371.1" x2="158" y2="404.7"/><line class="st1" x1="158" y1="353.9" x2="158" y2="320"/><line class="st1" x1="176.6" y1="353.9" x2="176.6" y2="320"/><line class="st1" x1="195.8" y1="353.9" x2="195.8" y2="320"/><line class="st1" x1="214" y1="371.1" x2="214" y2="404.7"/><line class="st1" x1="214" y1="353.9" x2="214" y2="320"/><line class="st1" x1="233.2" y1="371.1" x2="233.2" y2="404.7"/><line class="st1" x1="233.2" y1="353.9" x2="233.2" y2="320"/><line class="st1" x1="176.6" y1="404.7" x2="176.6" y2="383.1"/><line class="st1" x1="176.6" y1="377.7" x2="176.6" y2="371.1"/><line class="st1" x1="195.8" y1="371.1" x2="195.8" y2="377.7"/><line class="st1" x1="195.8" y1="383.1" x2="195.8" y2="404.7"/><polyline class="st0" points="418.3,149.2 418.3,192.6 484.6,192.6 "/><line class="st0" x1="460.3" y1="182" x2="460.3" y2="174.1"/><line class="st0" x1="460.3" y1="167.4" x2="460.3" y2="149.2"/><path class="st0" d="M312.1,303.5c0,0,0-2.8,1.3-10.3"/><path class="st0" d="M314.7,287.4c0,0,2.7-9.7,5.6-15.8"/><path class="st0" d="M324.1,264.8c0,0,5.7-11.7,7.3-13.5"/><polyline class="st0" points="335.5,244.7 341.8,236.5 344.7,232.6 "/><line class="st0" x1="306.6" y1="207.8" x2="341.8" y2="236.5"/><path class="st0" d="M349.9,226.7c0,0,6.5-7.3,11.1-10.6"/><path class="st0" d="M367.8,211.3c0,0,9.7-6.3,12.5-7.6"/><path class="st0" d="M418.3,192.6H413c0,0-0.9,0.3-3.7,1"/><path class="st0" d="M387.5,200.2c0,0,7.3-2.9,14.5-4.8"/><line class="st1" x1="270.1" y1="291.2" x2="312.1" y2="298.4"/><line class="st1" x1="296.4" y1="320" x2="299.1" y2="306.1"/><line class="st1" x1="300.1" y1="301.3" x2="301.2" y2="296.5"/><line class="st1" x1="277.3" y1="261.8" x2="317.5" y2="277.7"/><line class="st1" x1="290.1" y1="232.6" x2="328.2" y2="256.9"/><line class="st1" x1="326.7" y1="186.6" x2="355" y2="221.4"/><line class="st1" x1="352.9" y1="167.7" x2="375.5" y2="206.5"/><line class="st1" x1="381.3" y1="155.1" x2="394.8" y2="197.7"/><line class="st0" x1="528.9" y1="230.1" x2="528.9" y2="192.6"/><polyline class="st0" points="528.9,137.5 528.9,175.3 518.6,175.3 "/><line class="st0" x1="502.9" y1="194" x2="512.8" y2="194"/><polyline class="st0" points="519.4,194 528.9,194 567.1,194 "/><line class="st0" x1="577.2" y1="194" x2="621.7" y2="194"/><polyline class="st0" points="629.8,194 638.4,194 638.4,233.1 "/><line class="st0" x1="669.1" y1="194" x2="638.4" y2="194"/><polyline class="st0" points="677.2,194 692.1,194 697.4,194 "/><line class="st0" x1="597.5" y1="194" x2="597.5" y2="233.1"/><path class="st0" d="M520.3,174.4"/><line class="st0" x1="513.7" y1="175.3" x2="502.9" y2="175.3"/><line class="st0" x1="528.9" y1="175.3" x2="537.2" y2="175.3"/><polyline class="st0" points="542.4,175.3 557,175.3 557,172.3 557,137.5 "/><line class="st0" x1="562.4" y1="172.3" x2="557" y2="172.3"/><polyline class="st0" points="568.4,172.3 574,172.3 574,137.5 "/><line class="st0" x1="557" y1="161.7" x2="574" y2="161.7"/><polyline class="st0" points="621.7,137.5 621.7,161.7 638.4,161.7 638.4,137.5 "/><polyline class="st0" points="627.2,172.3 621.7,172.3 621.7,161.7 "/><polyline class="st0" points="653.7,175.3 638.4,175.3 638.4,161.7 "/><line class="st0" x1="638.4" y1="172.3" x2="633" y2="172.3"/><line class="st0" x1="659.1" y1="175.3" x2="675.5" y2="175.3"/><line class="st0" x1="680.7" y1="175.3" x2="692.1" y2="175.3"/><line class="st0" x1="665.4" y1="175.3" x2="665.4" y2="137.5"/><path class="st0" d="M873.2,294.1c0,0-1.7-8.5-3.5-13.5"/><path class="st0" d="M867.2,274.2c0,0-6.8-16.3-10.5-21.7"/><path class="st0" d="M853,246.9c0,0-4.4-6-8.8-10.8"/><path class="st0" d="M839.9,231.1c0,0-5.7-6.5-10.2-10"/><path class="st0" d="M824.6,217.1c0,0-6.9-5-11.9-7.9"/><path class="st0" d="M806.7,205.9c0,0-6.4-3.8-11.9-5.9"/><path class="st0" d="M774.8,194c4.6,0,8.8,1.7,13.7,3.5"/><line class="st0" x1="848.9" y1="241.4" x2="879" y2="214.8"/><line class="st1" x1="834.8" y1="225.8" x2="861.9" y2="196.8"/><line class="st1" x1="818.6" y1="213" x2="841.2" y2="179.8"/><line class="st1" x1="800.7" y1="202.7" x2="817.6" y2="165.6"/><line class="st1" x1="859.8" y1="258.1" x2="895.8" y2="238.2"/><line class="st1" x1="871.7" y1="287.4" x2="912.5" y2="276.5"/><polyline class="st0" points="875.7,324.4 875.7,357.5 880.5,357.5 "/><polyline class="st0" points="875.7,406.6 875.7,374.5 886.5,374.5 "/><line class="st0" x1="893.4" y1="374.5" x2="927.2" y2="374.5"/><line class="st0" x1="933" y1="374.5" x2="946.1" y2="374.5"/><polyline class="st0" points="952,374.5 958.5,374.5 1001,374.5 "/><line class="st0" x1="958.7" y1="406.6" x2="958.7" y2="374.5"/><line class="st0" x1="886.5" y1="357.5" x2="909.2" y2="357.5"/><line class="st0" x1="916.2" y1="357.5" x2="946.1" y2="357.5"/><line class="st0" x1="952" y1="357.5" x2="982.5" y2="357.5"/><line class="st0" x1="989" y1="357.5" x2="1001" y2="357.5"/><line class="st0" x1="958.7" y1="357.5" x2="958.7" y2="324.4"/><line class="st0" x1="900.8" y1="357.5" x2="900.8" y2="324.4"/><line class="st0" x1="875.7" y1="374.5" x2="869.7" y2="374.5"/><line class="st0" x1="861.8" y1="374.5" x2="852.8" y2="374.5"/><line class="st0" x1="1006.8" y1="374.5" x2="1019.3" y2="374.5"/><line class="st0" x1="1025" y1="374.5" x2="1037.6" y2="374.5"/><line class="st0" x1="1042.9" y1="374.5" x2="1056.2" y2="374.5"/><line class="st0" x1="1061.4" y1="374.5" x2="1074.4" y2="374.5"/><line class="st0" x1="1079.8" y1="374.5" x2="1093.1" y2="374.5"/><line class="st0" x1="1098.5" y1="374.5" x2="1112" y2="374.5"/><polyline class="st0" points="1118.8,374.5 1138.2,374.5 1138.2,367.4 "/><line class="st0" x1="1105.2" y1="374.5" x2="1105.2" y2="406.6"/><line class="st0" x1="1006.8" y1="357.5" x2="1019.3" y2="357.5"/><line class="st0" x1="1025" y1="357.5" x2="1037.6" y2="357.5"/><line class="st0" x1="1042.9" y1="357.5" x2="1056.2" y2="357.5"/><line class="st0" x1="1061.4" y1="357.5" x2="1074.4" y2="357.5"/><line class="st0" x1="1079.8" y1="357.5" x2="1112" y2="357.5"/><polyline class="st0" points="1084.2,357.5 1084.2,324.4 1122.9,324.4 1122.9,358.9 "/><line class="st0" x1="1138.2" y1="360.2" x2="1138.2" y2="336.7"/><line class="st0" x1="1138.2" y1="330.9" x2="1138.2" y2="311.3"/><line class="st0" x1="1138.2" y1="304.6" x2="1138.2" y2="286.3"/><line class="st0" x1="1138.2" y1="280.3" x2="1138.2" y2="267.7"/><line class="st0" x1="1138.2" y1="261.2" x2="1138.2" y2="249.8"/><line class="st0" x1="1138.2" y1="243.2" x2="1138.2" y2="231.5"/><line class="st0" x1="1138.2" y1="225.6" x2="1138.2" y2="212.1"/><line class="st0" x1="1138.2" y1="205.9" x2="1138.2" y2="159"/><line class="st0" x1="1138.2" y1="152.7" x2="1138.2" y2="105.7"/><line class="st0" x1="1138.2" y1="98.4" x2="1138.2" y2="66.5"/><line class="st0" x1="1138.2" y1="60" x2="1138.2" y2="45.3"/><line class="st0" x1="1138.2" y1="38.6" x2="1138.2" y2="29.9"/><line class="st0" x1="1138.2" y1="51.9" x2="1171.6" y2="51.9"/><line class="st0" x1="1138.2" y1="218.8" x2="1171.6" y2="218.8"/><polyline class="st0" points="1088.7,292.8 1122.9,292.8 1122.9,278.1 "/><line class="st0" x1="1138.2" y1="292.8" x2="1171.6" y2="292.8"/><line class="st0" x1="1138.2" y1="374.5" x2="1138.2" y2="406.6"/><line class="st0" x1="1138.2" y1="350.8" x2="1171.6" y2="350.8"/><line class="st0" x1="1138.2" y1="323.4" x2="1171.6" y2="323.4"/><line class="st1" x1="921.8" y1="406.6" x2="921.8" y2="374.5"/><line class="st1" x1="940.1" y1="406.6" x2="940.1" y2="374.5"/><line class="st1" x1="940.1" y1="357.5" x2="940.1" y2="324.4"/><line class="st1" x1="1013.1" y1="406.6" x2="1013.1" y2="374.5"/><line class="st1" x1="1013.1" y1="357.5" x2="1013.1" y2="324.4"/><line class="st1" x1="995" y1="357.5" x2="995" y2="324.4"/><line class="st1" x1="1031.3" y1="406.6" x2="1031.3" y2="374.5"/><line class="st1" x1="1031.3" y1="357.5" x2="1031.3" y2="324.4"/><line class="st1" x1="1049.6" y1="406.6" x2="1049.6" y2="374.5"/><line class="st1" x1="1049.6" y1="357.5" x2="1049.6" y2="324.4"/><line class="st1" x1="1067.9" y1="406.6" x2="1067.9" y2="374.5"/><line class="st1" x1="1067.9" y1="357.5" x2="1067.9" y2="324.4"/><line class="st1" x1="1086.5" y1="406.6" x2="1086.5" y2="374.5"/><line class="st0" x1="1122.9" y1="270.4" x2="1122.9" y2="249.8"/><line class="st0" x1="1122.9" y1="243.2" x2="1122.9" y2="231.5"/><line class="st0" x1="1122.9" y1="225.6" x2="1122.9" y2="212.1"/><line class="st0" x1="1122.9" y1="205.9" x2="1122.9" y2="195.1"/><line class="st0" x1="1122.9" y1="189.1" x2="1122.9" y2="159"/><line class="st0" x1="1122.9" y1="152.7" x2="1122.9" y2="140.3"/><line class="st0" x1="1122.9" y1="134.3" x2="1122.9" y2="122.2"/><line class="st0" x1="1122.9" y1="116.2" x2="1122.9" y2="102.9"/><line class="st0" x1="1122.9" y1="97.7" x2="1122.9" y2="84.5"/><line class="st0" x1="1122.9" y1="78.2" x2="1122.9" y2="66.5"/><polyline class="st0" points="1122.9,60 1122.9,51.9 1088.7,51.9 "/><line class="st0" x1="1122.9" y1="218.8" x2="1088.7" y2="218.8"/><line class="st1" x1="1138.2" y1="274" x2="1171.6" y2="274"/><line class="st1" x1="1171.6" y1="255.5" x2="1138.2" y2="255.5"/><line class="st1" x1="1122.9" y1="255.5" x2="1088.7" y2="255.5"/><line class="st1" x1="1138.2" y1="238.1" x2="1171.6" y2="238.1"/><line class="st1" x1="1088.7" y1="202.1" x2="1122.9" y2="202.1"/><line class="st1" x1="1138.2" y1="183.5" x2="1171.6" y2="183.5"/><line class="st1" x1="1122.9" y1="165.6" x2="1088.7" y2="165.6"/><line class="st1" x1="1088.7" y1="147.6" x2="1122.9" y2="147.6"/><line class="st1" x1="1088.7" y1="129.2" x2="1122.9" y2="129.2"/><line class="st1" x1="1138.2" y1="129.2" x2="1171.6" y2="129.2"/><line class="st1" x1="1138.2" y1="91.1" x2="1171.6" y2="91.1"/><line class="st1" x1="1122.9" y1="91.1" x2="1088.7" y2="91.1"/><line class="st1" x1="1088.7" y1="73.2" x2="1122.9" y2="73.2"/><line class="st2" x1="81.5" y1="53.2" x2="81.5" y2="83.5"/><line class="st2" x1="83.4" y1="83.5" x2="83.4" y2="53.2"/><line class="st2" x1="85.3" y1="53.2" x2="85.3" y2="83.5"/><line class="st2" x1="87.2" y1="83.5" x2="87.2" y2="53.2"/><line class="st2" x1="89.1" y1="53.2" x2="89.1" y2="83.5"/><line class="st2" x1="90.9" y1="83.5" x2="90.9" y2="53.2"/><line class="st2" x1="92.8" y1="53.2" x2="92.8" y2="83.5"/><line class="st2" x1="94.7" y1="83.5" x2="94.7" y2="53.2"/><line class="st2" x1="96.6" y1="53.2" x2="96.6" y2="83.5"/><line class="st2" x1="98.5" y1="83.5" x2="98.5" y2="53.2"/><line class="st2" x1="100.4" y1="53.2" x2="100.4" y2="83.5"/><line class="st2" x1="102.3" y1="83.5" x2="102.3" y2="53.2"/><line class="st2" x1="104.2" y1="53.2" x2="104.2" y2="83.5"/><line class="st2" x1="106.1" y1="83.5" x2="106.1" y2="53.2"/><line class="st2" x1="107.9" y1="53.2" x2="107.9" y2="83.5"/><line class="st2" x1="83.4" y1="334" x2="112.6" y2="334"/><line class="st2" x1="112.6" y1="332.1" x2="83.4" y2="332.1"/><line class="st2" x1="83.4" y1="330.2" x2="112.6" y2="330.2"/><line class="st2" x1="112.6" y1="328.3" x2="83.4" y2="328.3"/><line class="st2" x1="83.4" y1="326.4" x2="112.6" y2="326.4"/><line class="st2" x1="112.6" y1="324.4" x2="83.4" y2="324.4"/><line class="st2" x1="83.4" y1="322.5" x2="112.6" y2="322.5"/><line class="st2" x1="112.6" y1="320.6" x2="83.4" y2="320.6"/><line class="st2" x1="83.4" y1="318.7" x2="112.6" y2="318.7"/><line class="st2" x1="112.6" y1="316.8" x2="83.4" y2="316.8"/><line class="st2" x1="283" y1="345.1" x2="283" y2="320"/><line class="st2" x1="281.1" y1="320" x2="281.1" y2="345.1"/><line class="st2" x1="279.2" y1="345.1" x2="279.2" y2="320"/><line class="st2" x1="277.3" y1="320" x2="277.3" y2="345.1"/><line class="st2" x1="275.4" y1="345.1" x2="275.4" y2="320"/><line class="st2" x1="273.5" y1="320" x2="273.5" y2="345.1"/><line class="st2" x1="271.6" y1="320" x2="271.6" y2="345.1"/><line class="st2" x1="269.7" y1="345.1" x2="269.7" y2="320"/><line class="st2" x1="267.8" y1="343.6" x2="267.8" y2="318.5"/><line class="st2" x1="265.9" y1="345.1" x2="265.9" y2="320"/><line class="st2" x1="446.3" y1="149.2" x2="446.3" y2="192.6"/><line class="st2" x1="444.4" y1="192.6" x2="444.4" y2="149.2"/><line class="st2" x1="442.5" y1="149.2" x2="442.5" y2="192.6"/><line class="st2" x1="440.6" y1="192.6" x2="440.6" y2="149.2"/><line class="st2" x1="438.7" y1="149.2" x2="438.7" y2="192.6"/><line class="st2" x1="436.8" y1="192.6" x2="436.8" y2="149.2"/><line class="st2" x1="434.9" y1="149.2" x2="434.9" y2="192.6"/><line class="st2" x1="433" y1="192.6" x2="433" y2="149.2"/><line class="st2" x1="431.1" y1="149.2" x2="431.1" y2="192.6"/><line class="st2" x1="429.2" y1="192.6" x2="429.2" y2="149.2"/><path class="st0" d="M574,172.3"/><line class="st1" x1="574" y1="163" x2="621.7" y2="163"/><line class="st1" x1="574" y1="161.1" x2="621.7" y2="161.1"/><line class="st1" x1="574" y1="159.2" x2="621.7" y2="159.2"/><line class="st1" x1="573.6" y1="157.3" x2="621.3" y2="157.3"/><line class="st1" x1="574" y1="155.4" x2="621.7" y2="155.4"/><line class="st1" x1="574" y1="153.5" x2="621.7" y2="153.5"/><line class="st1" x1="574" y1="151.6" x2="621.7" y2="151.6"/><line class="st1" x1="574" y1="149.7" x2="621.7" y2="149.7"/><line class="st1" x1="749.1" y1="154.1" x2="749.1" y2="194"/><line class="st1" x1="751" y1="154.1" x2="751" y2="194"/><line class="st1" x1="752.9" y1="154.1" x2="752.9" y2="194"/><line class="st1" x1="754.8" y1="154.1" x2="754.8" y2="194"/><line class="st1" x1="756.7" y1="154.1" x2="756.7" y2="194"/><line class="st1" x1="758.6" y1="154.1" x2="758.6" y2="194"/><line class="st1" x1="760.5" y1="154.1" x2="760.5" y2="194"/><line class="st1" x1="762.4" y1="154.1" x2="762.4" y2="194"/><line class="st1" x1="764.3" y1="154.1" x2="764.3" y2="194"/><line class="st1" x1="766.2" y1="154.1" x2="766.2" y2="194"/><line class="st1" x1="875.7" y1="352.5" x2="900.8" y2="352.5"/><line class="st1" x1="900.8" y1="350.6" x2="875.7" y2="350.6"/><line class="st1" x1="875.7" y1="348.7" x2="900.8" y2="348.7"/><line class="st1" x1="900.8" y1="346.8" x2="875.7" y2="346.8"/><line class="st1" x1="875.7" y1="344.9" x2="900.8" y2="344.9"/><line class="st1" x1="900.8" y1="343" x2="875.7" y2="343"/><line class="st1" x1="875.7" y1="341.1" x2="900.8" y2="341.1"/><line class="st1" x1="900.8" y1="339.2" x2="875.7" y2="339.2"/><line class="st1" x1="875.7" y1="337.3" x2="900.8" y2="337.3"/><line class="st1" x1="900.8" y1="335.4" x2="875.7" y2="335.4"/><line class="st1" x1="1094.6" y1="292.8" x2="1094.6" y2="324.4"/><line class="st1" x1="1096.6" y1="324.4" x2="1096.6" y2="292.8"/><line class="st1" x1="1098.4" y1="292.8" x2="1098.4" y2="324.4"/><line class="st1" x1="1100.3" y1="324.4" x2="1100.3" y2="292.8"/><line class="st1" x1="1102.2" y1="292.8" x2="1102.2" y2="324.4"/><line class="st1" x1="1104.1" y1="324.4" x2="1104.1" y2="292.8"/><line class="st1" x1="1106" y1="292.8" x2="1106" y2="324.4"/><line class="st1" x1="1107.9" y1="324.4" x2="1107.9" y2="292.8"/><line class="st1" x1="1109.8" y1="292.8" x2="1109.8" y2="324.4"/><line class="st1" x1="1111.7" y1="324.4" x2="1111.7" y2="292.8"/><line class="st1" x1="1120.1" y1="51.9" x2="1120.1" y2="29.9"/><line class="st1" x1="1118.2" y1="29.9" x2="1118.2" y2="51.9"/><line class="st1" x1="1116.3" y1="51.9" x2="1116.3" y2="29.9"/><line class="st1" x1="1114.4" y1="29.9" x2="1114.4" y2="51.9"/><line class="st1" x1="1112.5" y1="51.9" x2="1112.5" y2="29.9"/><line class="st1" x1="1110.6" y1="29.9" x2="1110.6" y2="51.9"/><line class="st1" x1="1108.7" y1="51.9" x2="1108.7" y2="29.9"/><line class="st1" x1="1106.8" y1="29.9" x2="1106.8" y2="51.9"/><line class="st1" x1="1104.9" y1="51.9" x2="1104.9" y2="29.9"/><line class="st1" x1="1103" y1="29.9" x2="1103" y2="51.9"/><line class="st1" x1="1101.1" y1="51.9" x2="1101.1" y2="29.9"/><line class="st1" x1="1099.2" y1="29.9" x2="1099.2" y2="51.9"/><path class="st1" d="M1097.3,51.9"/><line class="st1" x1="402" y1="173" x2="409" y2="206" /><line class="st1" x1="409" y1="206" x2="391" y2="211" /><line class="st1" x1="391" y1="211" x2="372" y2="224" /><line class="st1" x1="372" y1="224" x2="359" y2="233" /><line class="st1" x1="359" y1="233" x2="343" y2="255" /><line class="st1" x1="343" y1="255" x2="334" y2="273" /><line class="st1" x1="334" y1="273" x2="325" y2="291" /><line class="st1" x1="325" y1="291" x2="290" y2="281" /><line class="st1" x1="290" y1="281" x2="290" y2="281" /><!-- ToDo: add proper labels --><!-- <text x="" y=""></text> --><circle fill="red" cx="290" cy="281" r="5"/><circle fill="green" cx="402" cy="173" r="5"/></svg>
